<svg width="10" height="9" viewBox="0 0 10 9" fill="none" xmlns="http://www.w3.org/2000/svg">
<path d="M6.81736 0.124849C6.15297 0.0457546 5.40948 0.156487 4.74508 0.457047C4.44452 0.599417 4.14396 0.773425 3.85922 0.979071V0.836701C3.85922 0.425409 3.52703 0.0773926 3.09991 0.0773926H0.916902C0.50561 0.0773926 0.157593 0.40959 0.157593 0.836701V8.22414C0.157593 8.63543 0.489791 8.98345 0.916902 8.98345H3.09991C3.51121 8.98345 3.85922 8.65125 3.85922 8.22414V5.29764V5.20273C3.85922 4.71234 4.2547 4.31686 4.74508 4.31686C5.23547 4.31686 5.63094 4.71234 5.63094 5.20273V8.08177V8.23996C5.63094 8.65125 5.96314 8.99927 6.39025 8.99927H8.57327C8.98456 8.99927 9.33257 8.66707 9.33257 8.23996V2.9248C9.30094 1.51692 8.20943 0.298857 6.81736 0.124849ZM8.43089 8.12923H6.48517V5.32928V5.18691C6.48517 4.22195 5.69422 3.43101 4.72926 3.43101C3.76431 3.43101 2.97336 4.22195 2.97336 5.18691V8.06595V8.11341H1.04345V0.963252H2.98918V1.45364C2.98918 1.69092 3.13155 1.91239 3.35302 2.02312C3.57448 2.13385 3.82759 2.10222 4.01741 1.94403C4.11233 1.86493 4.20724 1.80166 4.27052 1.7542C4.30215 1.72256 4.33379 1.70674 4.34961 1.69092C4.58689 1.5011 4.84 1.35873 5.10892 1.23217C5.64676 0.99489 6.21624 0.899977 6.72245 0.963252C7.6874 1.07398 8.43089 1.92821 8.43089 2.90898V8.12923Z" fill="white"/>
</svg>
